<mxfile host="app.diagrams.net" modified="2024-10-28T02:17:01.985Z" agent="Mozilla/5.0 (Windows NT 10.0; Win64; x64; rv:131.0) Gecko/20100101 Firefox/131.0" etag="iWxkpLSrqstIztt24eju" version="24.6.4" type="device">
  <diagram name="Page-1" id="2YBvvXClWsGukQMizWep">
    <mxGraphModel dx="1434" dy="1854" grid="1" gridSize="10" guides="1" tooltips="1" connect="1" arrows="1" fold="1" page="1" pageScale="1" pageWidth="850" pageHeight="1100" math="0" shadow="0">
      <root>
        <mxCell id="0" />
        <mxCell id="1" parent="0" />
        <mxCell id="aM9ryv3xv72pqoxQDRHE-1" value="Balancer" style="shape=umlLifeline;perimeter=lifelinePerimeter;whiteSpace=wrap;html=1;container=0;dropTarget=0;collapsible=0;recursiveResize=0;outlineConnect=0;portConstraint=eastwest;newEdgeStyle={&quot;edgeStyle&quot;:&quot;elbowEdgeStyle&quot;,&quot;elbow&quot;:&quot;vertical&quot;,&quot;curved&quot;:0,&quot;rounded&quot;:0};" parent="1" vertex="1">
          <mxGeometry x="40" y="40" width="100" height="590" as="geometry" />
        </mxCell>
        <mxCell id="aM9ryv3xv72pqoxQDRHE-2" value="" style="html=1;points=[];perimeter=orthogonalPerimeter;outlineConnect=0;targetShapes=umlLifeline;portConstraint=eastwest;newEdgeStyle={&quot;edgeStyle&quot;:&quot;elbowEdgeStyle&quot;,&quot;elbow&quot;:&quot;vertical&quot;,&quot;curved&quot;:0,&quot;rounded&quot;:0};" parent="aM9ryv3xv72pqoxQDRHE-1" vertex="1">
          <mxGeometry x="45" y="70" width="10" height="520" as="geometry" />
        </mxCell>
        <mxCell id="aM9ryv3xv72pqoxQDRHE-3" value="dispatch" style="html=1;verticalAlign=bottom;startArrow=oval;endArrow=block;startSize=8;edgeStyle=elbowEdgeStyle;elbow=vertical;curved=0;rounded=0;" parent="aM9ryv3xv72pqoxQDRHE-1" target="aM9ryv3xv72pqoxQDRHE-2" edge="1">
          <mxGeometry relative="1" as="geometry">
            <mxPoint x="-15" y="70" as="sourcePoint" />
          </mxGeometry>
        </mxCell>
        <mxCell id="aM9ryv3xv72pqoxQDRHE-5" value="this ( ox63 )" style="shape=umlLifeline;perimeter=lifelinePerimeter;whiteSpace=wrap;html=1;container=0;dropTarget=0;collapsible=0;recursiveResize=0;outlineConnect=0;portConstraint=eastwest;newEdgeStyle={&quot;edgeStyle&quot;:&quot;elbowEdgeStyle&quot;,&quot;elbow&quot;:&quot;vertical&quot;,&quot;curved&quot;:0,&quot;rounded&quot;:0};" parent="1" vertex="1">
          <mxGeometry x="280" y="40" width="100" height="580" as="geometry" />
        </mxCell>
        <mxCell id="aM9ryv3xv72pqoxQDRHE-6" value="" style="html=1;points=[];perimeter=orthogonalPerimeter;outlineConnect=0;targetShapes=umlLifeline;portConstraint=eastwest;newEdgeStyle={&quot;edgeStyle&quot;:&quot;elbowEdgeStyle&quot;,&quot;elbow&quot;:&quot;vertical&quot;,&quot;curved&quot;:0,&quot;rounded&quot;:0};" parent="aM9ryv3xv72pqoxQDRHE-5" vertex="1">
          <mxGeometry x="45" y="80" width="10" height="500" as="geometry" />
        </mxCell>
        <mxCell id="aM9ryv3xv72pqoxQDRHE-7" value="Flash loan (WETH)" style="html=1;verticalAlign=bottom;endArrow=block;edgeStyle=elbowEdgeStyle;elbow=horizontal;curved=0;rounded=0;" parent="1" source="aM9ryv3xv72pqoxQDRHE-2" target="aM9ryv3xv72pqoxQDRHE-6" edge="1">
          <mxGeometry relative="1" as="geometry">
            <mxPoint x="195" y="130" as="sourcePoint" />
            <Array as="points">
              <mxPoint x="180" y="120" />
            </Array>
          </mxGeometry>
        </mxCell>
        <mxCell id="mUz9M5Fyn88ZtdnVZwdU-1" value="&lt;div&gt;&amp;nbsp;ox7F&lt;br&gt;&lt;/div&gt;" style="shape=umlLifeline;perimeter=lifelinePerimeter;whiteSpace=wrap;html=1;container=0;dropTarget=0;collapsible=0;recursiveResize=0;outlineConnect=0;portConstraint=eastwest;newEdgeStyle={&quot;edgeStyle&quot;:&quot;elbowEdgeStyle&quot;,&quot;elbow&quot;:&quot;vertical&quot;,&quot;curved&quot;:0,&quot;rounded&quot;:0};" vertex="1" parent="1">
          <mxGeometry x="490" y="40" width="100" height="580" as="geometry" />
        </mxCell>
        <mxCell id="mUz9M5Fyn88ZtdnVZwdU-2" value="" style="html=1;points=[];perimeter=orthogonalPerimeter;outlineConnect=0;targetShapes=umlLifeline;portConstraint=eastwest;newEdgeStyle={&quot;edgeStyle&quot;:&quot;elbowEdgeStyle&quot;,&quot;elbow&quot;:&quot;vertical&quot;,&quot;curved&quot;:0,&quot;rounded&quot;:0};" vertex="1" parent="mUz9M5Fyn88ZtdnVZwdU-1">
          <mxGeometry x="45" y="80" width="10" height="500" as="geometry" />
        </mxCell>
        <mxCell id="mUz9M5Fyn88ZtdnVZwdU-3" value="UniSwap" style="shape=umlLifeline;perimeter=lifelinePerimeter;whiteSpace=wrap;html=1;container=0;dropTarget=0;collapsible=0;recursiveResize=0;outlineConnect=0;portConstraint=eastwest;newEdgeStyle={&quot;edgeStyle&quot;:&quot;elbowEdgeStyle&quot;,&quot;elbow&quot;:&quot;vertical&quot;,&quot;curved&quot;:0,&quot;rounded&quot;:0};" vertex="1" parent="1">
          <mxGeometry x="680" y="40" width="100" height="570" as="geometry" />
        </mxCell>
        <mxCell id="mUz9M5Fyn88ZtdnVZwdU-4" value="" style="html=1;points=[];perimeter=orthogonalPerimeter;outlineConnect=0;targetShapes=umlLifeline;portConstraint=eastwest;newEdgeStyle={&quot;edgeStyle&quot;:&quot;elbowEdgeStyle&quot;,&quot;elbow&quot;:&quot;vertical&quot;,&quot;curved&quot;:0,&quot;rounded&quot;:0};" vertex="1" parent="mUz9M5Fyn88ZtdnVZwdU-3">
          <mxGeometry x="45" y="80" width="10" height="480" as="geometry" />
        </mxCell>
        <mxCell id="mUz9M5Fyn88ZtdnVZwdU-7" value="" style="endArrow=classic;html=1;rounded=0;" edge="1" parent="1" target="mUz9M5Fyn88ZtdnVZwdU-1">
          <mxGeometry relative="1" as="geometry">
            <mxPoint x="335" y="159" as="sourcePoint" />
            <mxPoint x="480" y="159" as="targetPoint" />
          </mxGeometry>
        </mxCell>
        <mxCell id="mUz9M5Fyn88ZtdnVZwdU-8" value="Label" style="edgeLabel;resizable=0;html=1;;align=center;verticalAlign=middle;" connectable="0" vertex="1" parent="mUz9M5Fyn88ZtdnVZwdU-7">
          <mxGeometry relative="1" as="geometry" />
        </mxCell>
        <mxCell id="mUz9M5Fyn88ZtdnVZwdU-10" value="WETH" style="edgeLabel;html=1;align=center;verticalAlign=middle;resizable=0;points=[];" vertex="1" connectable="0" parent="mUz9M5Fyn88ZtdnVZwdU-7">
          <mxGeometry x="0.0465" y="-4" relative="1" as="geometry">
            <mxPoint y="-6" as="offset" />
          </mxGeometry>
        </mxCell>
        <mxCell id="mUz9M5Fyn88ZtdnVZwdU-11" value="" style="endArrow=classic;html=1;rounded=0;" edge="1" parent="1">
          <mxGeometry relative="1" as="geometry">
            <mxPoint x="539.5" y="204" as="sourcePoint" />
            <mxPoint x="329.5" y="204" as="targetPoint" />
          </mxGeometry>
        </mxCell>
        <mxCell id="mUz9M5Fyn88ZtdnVZwdU-12" value="Label" style="edgeLabel;resizable=0;html=1;;align=center;verticalAlign=middle;" connectable="0" vertex="1" parent="mUz9M5Fyn88ZtdnVZwdU-11">
          <mxGeometry relative="1" as="geometry" />
        </mxCell>
        <mxCell id="mUz9M5Fyn88ZtdnVZwdU-14" value="USDC" style="edgeLabel;html=1;align=center;verticalAlign=middle;resizable=0;points=[];" vertex="1" connectable="0" parent="mUz9M5Fyn88ZtdnVZwdU-11">
          <mxGeometry x="-0.0143" y="1" relative="1" as="geometry">
            <mxPoint y="-3" as="offset" />
          </mxGeometry>
        </mxCell>
        <mxCell id="mUz9M5Fyn88ZtdnVZwdU-15" value="USDC" style="html=1;verticalAlign=bottom;endArrow=block;edgeStyle=elbowEdgeStyle;elbow=horizontal;curved=0;rounded=0;" edge="1" parent="1" source="aM9ryv3xv72pqoxQDRHE-6" target="mUz9M5Fyn88ZtdnVZwdU-3">
          <mxGeometry relative="1" as="geometry">
            <mxPoint x="330" y="256" as="sourcePoint" />
            <Array as="points">
              <mxPoint x="380" y="250" />
            </Array>
            <mxPoint x="720" y="256" as="targetPoint" />
          </mxGeometry>
        </mxCell>
        <mxCell id="mUz9M5Fyn88ZtdnVZwdU-16" value="WETH" style="html=1;verticalAlign=bottom;endArrow=block;edgeStyle=elbowEdgeStyle;elbow=horizontal;curved=0;rounded=0;" edge="1" parent="1">
          <mxGeometry relative="1" as="geometry">
            <mxPoint x="726" y="282" as="sourcePoint" />
            <Array as="points">
              <mxPoint x="376" y="282" />
            </Array>
            <mxPoint x="331" y="282" as="targetPoint" />
          </mxGeometry>
        </mxCell>
        <mxCell id="mUz9M5Fyn88ZtdnVZwdU-17" value="WETH returned" style="html=1;verticalAlign=bottom;endArrow=block;edgeStyle=elbowEdgeStyle;elbow=horizontal;curved=0;rounded=0;" edge="1" parent="1">
          <mxGeometry relative="1" as="geometry">
            <mxPoint x="326" y="334.5" as="sourcePoint" />
            <Array as="points">
              <mxPoint x="181" y="334.5" />
            </Array>
            <mxPoint x="96" y="334.5" as="targetPoint" />
          </mxGeometry>
        </mxCell>
        <mxCell id="mUz9M5Fyn88ZtdnVZwdU-18" value="Where did the USDC for 0x7F come from?" style="shape=callout;whiteSpace=wrap;html=1;perimeter=calloutPerimeter;" vertex="1" parent="1">
          <mxGeometry x="480" y="-50" width="120" height="90" as="geometry" />
        </mxCell>
      </root>
    </mxGraphModel>
  </diagram>
</mxfile>
